<svg viewBox="-16 -32 880 192" width="880" height="192" xmlns="http://www.w3.org/2000/svg"><style>@keyframes c0{.97%{fill:var(--c1)}.99%,to{fill:var(--ce)}}@keyframes c1{1.63%{fill:var(--c1)}1.65%,to{fill:var(--ce)}}@keyframes c2{1.96%{fill:var(--c1)}1.98%,to{fill:var(--ce)}}@keyframes c3{2.29%{fill:var(--c1)}2.31%,to{fill:var(--ce)}}@keyframes c4{4.25%{fill:var(--c1)}4.27%,to{fill:var(--ce)}}@keyframes c5{7.53%{fill:var(--c1)}7.55%,to{fill:var(--ce)}}@keyframes c6{9.17%{fill:var(--c1)}9.19%,to{fill:var(--ce)}}@keyframes c7{9.5%{fill:var(--c1)}9.52%,to{fill:var(--ce)}}@keyframes c8{11.47%{fill:var(--c1)}11.49%,to{fill:var(--ce)}}@keyframes c9{66.88%{fill:var(--c2)}66.9%,to{fill:var(--ce)}}@keyframes ca{65.89%{fill:var(--c2)}65.91%,to{fill:var(--ce)}}@keyframes cb{13.76%{fill:var(--c1)}13.78%,to{fill:var(--ce)}}@keyframes cc{63.92%{fill:var(--c2)}63.94%,to{fill:var(--ce)}}@keyframes cd{88.84%{fill:var(--c4)}88.86%,to{fill:var(--ce)}}@keyframes ce{19.33%{fill:var(--c1)}19.35%,to{fill:var(--ce)}}@keyframes cf{62.29%{fill:var(--c2)}62.31%,to{fill:var(--ce)}}@keyframes cg{15.73%{fill:var(--c1)}15.75%,to{fill:var(--ce)}}@keyframes ch{60.97%{fill:var(--c2)}60.99%,to{fill:var(--ce)}}@keyframes ci{82.61%{fill:var(--c4)}82.63%,to{fill:var(--ce)}}@keyframes cj{16.71%{fill:var(--c1)}16.73%,to{fill:var(--ce)}}@keyframes ck{59.33%{fill:var(--c2)}59.35%,to{fill:var(--ce)}}@keyframes cl{17.69%{fill:var(--c1)}17.71%,to{fill:var(--ce)}}@keyframes cm{17.37%{fill:var(--c1)}17.39%,to{fill:var(--ce)}}@keyframes cn{21.63%{fill:var(--c1)}21.65%,to{fill:var(--ce)}}@keyframes co{83.92%{fill:var(--c4)}83.94%,to{fill:var(--ce)}}@keyframes cp{71.14%{fill:var(--c3)}71.16%,to{fill:var(--ce)}}@keyframes cq{85.24%{fill:var(--c4)}85.26%,to{fill:var(--ce)}}@keyframes cr{80.97%{fill:var(--c4)}80.99%,to{fill:var(--ce)}}@keyframes cs{80.65%{fill:var(--c4)}80.67%,to{fill:var(--ce)}}@keyframes ct{55.4%{fill:var(--c2)}55.42%,to{fill:var(--ce)}}@keyframes cu{22.94%{fill:var(--c1)}22.96%,to{fill:var(--ce)}}@keyframes cv{22.61%{fill:var(--c1)}22.63%,to{fill:var(--ce)}}@keyframes cw{24.25%{fill:var(--c1)}24.27%,to{fill:var(--ce)}}@keyframes cx{33.1%{fill:var(--c1)}33.12%,to{fill:var(--ce)}}@keyframes cy{54.42%{fill:var(--c2)}54.44%,to{fill:var(--ce)}}@keyframes cz{55.07%{fill:var(--c2)}55.09%,to{fill:var(--ce)}}@keyframes c10{72.45%{fill:var(--c3)}72.47%,to{fill:var(--ce)}}@keyframes c11{56.38%{fill:var(--c2)}56.4%,to{fill:var(--ce)}}@keyframes c12{24.58%{fill:var(--c1)}24.6%,to{fill:var(--ce)}}@keyframes c13{24.91%{fill:var(--c1)}24.93%,to{fill:var(--ce)}}@keyframes c14{29.17%{fill:var(--c1)}29.19%,to{fill:var(--ce)}}@keyframes c15{79.99%{fill:var(--c4)}80.01%,to{fill:var(--ce)}}@keyframes c16{31.14%{fill:var(--c1)}31.16%,to{fill:var(--ce)}}@keyframes c17{31.47%{fill:var(--c1)}31.49%,to{fill:var(--ce)}}@keyframes c18{25.24%{fill:var(--c1)}25.26%,to{fill:var(--ce)}}@keyframes c19{28.84%{fill:var(--c1)}28.86%,to{fill:var(--ce)}}@keyframes c1a{25.89%{fill:var(--c1)}25.91%,to{fill:var(--ce)}}@keyframes c1b{53.43%{fill:var(--c2)}53.45%,to{fill:var(--ce)}}@keyframes c1c{28.19%{fill:var(--c1)}28.21%,to{fill:var(--ce)}}@keyframes c1d{78.35%{fill:var(--c4)}78.37%,to{fill:var(--ce)}}@keyframes c1e{26.22%{fill:var(--c1)}26.24%,to{fill:var(--ce)}}@keyframes c1f{46.22%{fill:var(--c2)}46.24%,to{fill:var(--ce)}}@keyframes c1g{27.86%{fill:var(--c1)}27.88%,to{fill:var(--ce)}}@keyframes c1h{44.91%{fill:var(--c2)}44.93%,to{fill:var(--ce)}}@keyframes c1i{44.58%{fill:var(--c2)}44.6%,to{fill:var(--ce)}}@keyframes c1j{44.25%{fill:var(--c1)}44.27%,to{fill:var(--ce)}}@keyframes c1k{37.04%{fill:var(--c1)}37.06%,to{fill:var(--ce)}}@keyframes c1l{36.38%{fill:var(--c1)}36.4%,to{fill:var(--ce)}}@keyframes c1m{39.99%{fill:var(--c1)}40.01%,to{fill:var(--ce)}}@keyframes c1n{51.47%{fill:var(--c2)}51.49%,to{fill:var(--ce)}}@keyframes c1o{37.69%{fill:var(--c1)}37.71%,to{fill:var(--ce)}}@keyframes c1p{47.86%{fill:var(--c2)}47.88%,to{fill:var(--ce)}}@keyframes c1q{39.66%{fill:var(--c1)}39.68%,to{fill:var(--ce)}}@keyframes c1r{41.3%{fill:var(--c1)}41.32%,to{fill:var(--ce)}}@keyframes c1s{50.81%{fill:var(--c2)}50.83%,to{fill:var(--ce)}}@keyframes c1t{38.02%{fill:var(--c1)}38.04%,to{fill:var(--ce)}}@keyframes c1u{76.38%{fill:var(--c4)}76.4%,to{fill:var(--ce)}}@keyframes c1v{76.06%{fill:var(--c3)}76.08%,to{fill:var(--ce)}}@keyframes c1w{39.33%{fill:var(--c1)}39.35%,to{fill:var(--ce)}}@keyframes c1x{39.01%{fill:var(--c1)}39.03%,to{fill:var(--ce)}}@keyframes c1y{38.35%{fill:var(--c1)}38.37%,to{fill:var(--ce)}}@keyframes c1z{49.17%{fill:var(--c2)}49.19%,to{fill:var(--ce)}}@keyframes u0{.97%{transform:scale(0,1)}.99%,1.63%{transform:scale(.02,1)}1.65%,1.96%{transform:scale(.05,1)}1.98%,2.29%{transform:scale(.07,1)}2.31%,4.25%{transform:scale(.1,1)}4.27%,7.53%{transform:scale(.12,1)}7.55%,9.17%{transform:scale(.14,1)}9.19%,9.5%{transform:scale(.17,1)}11.47%,9.52%{transform:scale(.19,1)}11.49%,13.76%{transform:scale(.21,1)}13.78%,15.73%{transform:scale(.24,1)}15.75%,16.71%{transform:scale(.26,1)}16.73%,17.37%{transform:scale(.29,1)}17.39%,17.69%{transform:scale(.31,1)}17.71%,19.33%{transform:scale(.33,1)}19.35%,21.63%{transform:scale(.36,1)}21.65%,22.61%{transform:scale(.38,1)}22.63%,22.94%{transform:scale(.4,1)}22.96%,24.25%{transform:scale(.43,1)}24.27%,24.58%{transform:scale(.45,1)}24.6%,24.91%{transform:scale(.48,1)}24.93%,25.24%{transform:scale(.5,1)}25.26%,25.89%{transform:scale(.52,1)}25.91%,26.22%{transform:scale(.55,1)}26.24%,27.86%{transform:scale(.57,1)}27.88%,28.19%{transform:scale(.6,1)}28.21%,28.84%{transform:scale(.62,1)}28.86%,29.17%{transform:scale(.64,1)}29.19%,31.14%{transform:scale(.67,1)}31.16%,31.47%{transform:scale(.69,1)}31.49%,33.1%{transform:scale(.71,1)}33.12%,36.38%{transform:scale(.74,1)}36.4%,37.04%{transform:scale(.76,1)}37.06%,37.69%{transform:scale(.79,1)}37.71%,38.02%{transform:scale(.81,1)}38.04%,38.35%{transform:scale(.83,1)}38.37%,39.01%{transform:scale(.86,1)}39.03%,39.33%{transform:scale(.88,1)}39.35%,39.66%{transform:scale(.9,1)}39.68%,39.99%{transform:scale(.93,1)}40.01%,41.3%{transform:scale(.95,1)}41.32%,44.25%{transform:scale(.98,1)}44.27%,to{transform:scale(1,1)}}@keyframes u1{44.58%{transform:scale(0,1)}44.6%,44.91%{transform:scale(.06,1)}44.93%,46.22%{transform:scale(.11,1)}46.24%,47.86%{transform:scale(.17,1)}47.88%,49.17%{transform:scale(.22,1)}49.19%,50.81%{transform:scale(.28,1)}50.83%,51.47%{transform:scale(.33,1)}51.49%,53.43%{transform:scale(.39,1)}53.45%,54.42%{transform:scale(.44,1)}54.44%,55.07%{transform:scale(.5,1)}55.09%,55.4%{transform:scale(.56,1)}55.42%,56.38%{transform:scale(.61,1)}56.4%,59.33%{transform:scale(.67,1)}59.35%,60.97%{transform:scale(.72,1)}60.99%,62.29%{transform:scale(.78,1)}62.31%,63.92%{transform:scale(.83,1)}63.94%,65.89%{transform:scale(.89,1)}65.91%,66.88%{transform:scale(.94,1)}66.9%,to{transform:scale(1,1)}}@keyframes u2{71.14%{transform:scale(0,1)}71.16%,72.45%{transform:scale(.33,1)}72.47%,76.06%{transform:scale(.67,1)}76.08%,to{transform:scale(1,1)}}@keyframes u3{76.38%{transform:scale(0,1)}76.4%,78.35%{transform:scale(.11,1)}78.37%,79.99%{transform:scale(.22,1)}80.01%,80.65%{transform:scale(.33,1)}80.67%,80.97%{transform:scale(.44,1)}80.99%,82.61%{transform:scale(.56,1)}82.63%,83.92%{transform:scale(.67,1)}83.94%,85.24%{transform:scale(.78,1)}85.26%,88.84%{transform:scale(.89,1)}88.86%,to{transform:scale(1,1)}}@keyframes s0{0%,99.67%{transform:translate(0,-16px)}1.64%{transform:translate(0,64px)}3.61%{transform:translate(96px,64px)}4.26%{transform:translate(96px,32px)}6.23%{transform:translate(192px,32px)}7.54%{transform:translate(192px,96px)}8.85%{transform:translate(256px,96px)}9.18%{transform:translate(256px,80px)}12.46%,66.23%{transform:translate(416px,80px)}12.79%,66.56%{transform:translate(416px,64px)}13.44%{transform:translate(448px,64px)}13.77%{transform:translate(448px,80px)}15.08%{transform:translate(512px,80px)}15.74%,20.33%{transform:translate(512px,48px)}16.39%{transform:translate(544px,48px)}16.72%{transform:translate(544px,32px)}17.05%{transform:translate(560px,32px)}17.7%{transform:translate(560px,0)}19.02%{transform:translate(496px,0)}19.34%{transform:translate(496px,16px)}19.67%{transform:translate(512px,16px)}21.31%{transform:translate(560px,48px)}21.64%{transform:translate(560px,64px)}22.62%,23.93%,56.07%,57.38%{transform:translate(608px,64px)}22.95%{transform:translate(608px,48px)}23.28%,84.26%{transform:translate(592px,48px)}23.61%{transform:translate(592px,64px)}24.26%,32.79%,57.05%{transform:translate(608px,80px)}24.59%,56.72%,71.8%{transform:translate(624px,80px)}24.92%{transform:translate(624px,96px)}25.57%,34.1%{transform:translate(656px,96px)}25.9%,34.43%{transform:translate(656px,80px)}26.56%,35.08%,45.57%{transform:translate(688px,80px)}27.87%{transform:translate(688px,16px)}28.52%{transform:translate(656px,16px)}28.85%{transform:translate(656px,0)}29.18%{transform:translate(640px,0)}29.51%{transform:translate(640px,-16px)}29.84%{transform:translate(656px,-16px)}30.82%{transform:translate(656px,32px)}31.15%{transform:translate(640px,32px)}32.13%{transform:translate(640px,80px)}33.11%{transform:translate(608px,96px)}35.41%{transform:translate(688px,96px)}36.39%{transform:translate(736px,96px)}37.05%{transform:translate(736px,64px)}37.38%{transform:translate(752px,64px)}37.7%,75.08%{transform:translate(752px,48px)}38.36%,42.3%{transform:translate(784px,48px)}39.34%{transform:translate(784px,0)}40%,51.8%{transform:translate(752px,0)}40.33%{transform:translate(752px,-16px)}40.66%{transform:translate(768px,-16px)}41.31%,51.15%{transform:translate(768px,16px)}41.64%{transform:translate(784px,16px)}43.61%{transform:translate(720px,48px)}44.26%{transform:translate(720px,80px)}44.59%{transform:translate(704px,80px)}44.92%{transform:translate(704px,64px)}45.25%{transform:translate(688px,64px)}45.9%{transform:translate(672px,80px)}46.23%{transform:translate(672px,96px)}48.85%{transform:translate(800px,96px)}50.16%{transform:translate(800px,32px)}50.82%{transform:translate(768px,32px)}51.48%{transform:translate(752px,16px)}54.43%{transform:translate(624px,0)}55.08%{transform:translate(624px,32px)}55.41%{transform:translate(608px,32px)}56.39%{transform:translate(624px,64px)}58.69%{transform:translate(544px,64px)}59.34%{transform:translate(544px,96px)}59.67%{transform:translate(528px,96px)}60.98%{transform:translate(528px,32px)}61.64%{transform:translate(496px,32px)}62.3%{transform:translate(496px,64px)}62.62%{transform:translate(480px,64px)}62.95%{transform:translate(480px,48px)}63.28%{transform:translate(464px,48px)}63.93%{transform:translate(464px,16px)}64.59%{transform:translate(432px,16px)}65.9%{transform:translate(432px,80px)}66.89%{transform:translate(400px,64px)}67.21%{transform:translate(400px,80px)}72.46%{transform:translate(624px,48px)}75.74%{transform:translate(752px,80px)}76.07%{transform:translate(768px,80px)}76.39%{transform:translate(768px,64px)}78.36%{transform:translate(672px,64px)}79.34%{transform:translate(672px,16px)}80.66%{transform:translate(608px,16px)}80.98%{transform:translate(608px,0)}82.3%{transform:translate(544px,0)}82.62%{transform:translate(544px,16px)}83.28%{transform:translate(576px,16px)}83.93%{transform:translate(576px,48px)}85.25%{transform:translate(592px,96px)}85.57%{transform:translate(576px,96px)}86.89%{transform:translate(576px,32px)}96.07%{transform:translate(128px,32px)}96.39%{transform:translate(128px,16px)}97.7%{transform:translate(64px,16px)}98.36%{transform:translate(64px,-16px)}}@keyframes s1{0%,99.67%{transform:translate(16px,-16px)}.33%{transform:translate(0,-16px)}1.97%{transform:translate(0,64px)}3.93%{transform:translate(96px,64px)}4.59%{transform:translate(96px,32px)}6.56%{transform:translate(192px,32px)}7.87%{transform:translate(192px,96px)}9.18%{transform:translate(256px,96px)}9.51%{transform:translate(256px,80px)}12.79%,66.56%{transform:translate(416px,80px)}13.11%,66.89%{transform:translate(416px,64px)}13.77%{transform:translate(448px,64px)}14.1%{transform:translate(448px,80px)}15.41%{transform:translate(512px,80px)}16.07%,20.66%{transform:translate(512px,48px)}16.72%{transform:translate(544px,48px)}17.05%{transform:translate(544px,32px)}17.38%{transform:translate(560px,32px)}18.03%{transform:translate(560px,0)}19.34%{transform:translate(496px,0)}19.67%{transform:translate(496px,16px)}20%{transform:translate(512px,16px)}21.64%{transform:translate(560px,48px)}21.97%{transform:translate(560px,64px)}22.95%,24.26%,56.39%,57.7%{transform:translate(608px,64px)}23.28%{transform:translate(608px,48px)}23.61%,84.59%{transform:translate(592px,48px)}23.93%{transform:translate(592px,64px)}24.59%,33.11%,57.38%{transform:translate(608px,80px)}24.92%,57.05%,72.13%{transform:translate(624px,80px)}25.25%{transform:translate(624px,96px)}25.9%,34.43%{transform:translate(656px,96px)}26.23%,34.75%{transform:translate(656px,80px)}26.89%,35.41%,45.9%{transform:translate(688px,80px)}28.2%{transform:translate(688px,16px)}28.85%{transform:translate(656px,16px)}29.18%{transform:translate(656px,0)}29.51%{transform:translate(640px,0)}29.84%{transform:translate(640px,-16px)}30.16%{transform:translate(656px,-16px)}31.15%{transform:translate(656px,32px)}31.48%{transform:translate(640px,32px)}32.46%{transform:translate(640px,80px)}33.44%{transform:translate(608px,96px)}35.74%{transform:translate(688px,96px)}36.72%{transform:translate(736px,96px)}37.38%{transform:translate(736px,64px)}37.7%{transform:translate(752px,64px)}38.03%,75.41%{transform:translate(752px,48px)}38.69%,42.62%{transform:translate(784px,48px)}39.67%{transform:translate(784px,0)}40.33%,52.13%{transform:translate(752px,0)}40.66%{transform:translate(752px,-16px)}40.98%{transform:translate(768px,-16px)}41.64%,51.48%{transform:translate(768px,16px)}41.97%{transform:translate(784px,16px)}43.93%{transform:translate(720px,48px)}44.59%{transform:translate(720px,80px)}44.92%{transform:translate(704px,80px)}45.25%{transform:translate(704px,64px)}45.57%{transform:translate(688px,64px)}46.23%{transform:translate(672px,80px)}46.56%{transform:translate(672px,96px)}49.18%{transform:translate(800px,96px)}50.49%{transform:translate(800px,32px)}51.15%{transform:translate(768px,32px)}51.8%{transform:translate(752px,16px)}54.75%{transform:translate(624px,0)}55.41%{transform:translate(624px,32px)}55.74%{transform:translate(608px,32px)}56.72%{transform:translate(624px,64px)}59.02%{transform:translate(544px,64px)}59.67%{transform:translate(544px,96px)}60%{transform:translate(528px,96px)}61.31%{transform:translate(528px,32px)}61.97%{transform:translate(496px,32px)}62.62%{transform:translate(496px,64px)}62.95%{transform:translate(480px,64px)}63.28%{transform:translate(480px,48px)}63.61%{transform:translate(464px,48px)}64.26%{transform:translate(464px,16px)}64.92%{transform:translate(432px,16px)}66.23%{transform:translate(432px,80px)}67.21%{transform:translate(400px,64px)}67.54%{transform:translate(400px,80px)}72.79%{transform:translate(624px,48px)}76.07%{transform:translate(752px,80px)}76.39%{transform:translate(768px,80px)}76.72%{transform:translate(768px,64px)}78.69%{transform:translate(672px,64px)}79.67%{transform:translate(672px,16px)}80.98%{transform:translate(608px,16px)}81.31%{transform:translate(608px,0)}82.62%{transform:translate(544px,0)}82.95%{transform:translate(544px,16px)}83.61%{transform:translate(576px,16px)}84.26%{transform:translate(576px,48px)}85.57%{transform:translate(592px,96px)}85.9%{transform:translate(576px,96px)}87.21%{transform:translate(576px,32px)}96.39%{transform:translate(128px,32px)}96.72%{transform:translate(128px,16px)}98.03%{transform:translate(64px,16px)}98.69%{transform:translate(64px,-16px)}}@keyframes s2{0%,99.67%{transform:translate(32px,-16px)}.66%{transform:translate(0,-16px)}2.3%{transform:translate(0,64px)}4.26%{transform:translate(96px,64px)}4.92%{transform:translate(96px,32px)}6.89%{transform:translate(192px,32px)}8.2%{transform:translate(192px,96px)}9.51%{transform:translate(256px,96px)}9.84%{transform:translate(256px,80px)}13.11%,66.89%{transform:translate(416px,80px)}13.44%,67.21%{transform:translate(416px,64px)}14.1%{transform:translate(448px,64px)}14.43%{transform:translate(448px,80px)}15.74%{transform:translate(512px,80px)}16.39%,20.98%{transform:translate(512px,48px)}17.05%{transform:translate(544px,48px)}17.38%{transform:translate(544px,32px)}17.7%{transform:translate(560px,32px)}18.36%{transform:translate(560px,0)}19.67%{transform:translate(496px,0)}20%{transform:translate(496px,16px)}20.33%{transform:translate(512px,16px)}21.97%{transform:translate(560px,48px)}22.3%{transform:translate(560px,64px)}23.28%,24.59%,56.72%,58.03%{transform:translate(608px,64px)}23.61%{transform:translate(608px,48px)}23.93%,84.92%{transform:translate(592px,48px)}24.26%{transform:translate(592px,64px)}24.92%,33.44%,57.7%{transform:translate(608px,80px)}25.25%,57.38%,72.46%{transform:translate(624px,80px)}25.57%{transform:translate(624px,96px)}26.23%,34.75%{transform:translate(656px,96px)}26.56%,35.08%{transform:translate(656px,80px)}27.21%,35.74%,46.23%{transform:translate(688px,80px)}28.52%{transform:translate(688px,16px)}29.18%{transform:translate(656px,16px)}29.51%{transform:translate(656px,0)}29.84%{transform:translate(640px,0)}30.16%{transform:translate(640px,-16px)}30.49%{transform:translate(656px,-16px)}31.48%{transform:translate(656px,32px)}31.8%{transform:translate(640px,32px)}32.79%{transform:translate(640px,80px)}33.77%{transform:translate(608px,96px)}36.07%{transform:translate(688px,96px)}37.05%{transform:translate(736px,96px)}37.7%{transform:translate(736px,64px)}38.03%{transform:translate(752px,64px)}38.36%,75.74%{transform:translate(752px,48px)}39.02%,42.95%{transform:translate(784px,48px)}40%{transform:translate(784px,0)}40.66%,52.46%{transform:translate(752px,0)}40.98%{transform:translate(752px,-16px)}41.31%{transform:translate(768px,-16px)}41.97%,51.8%{transform:translate(768px,16px)}42.3%{transform:translate(784px,16px)}44.26%{transform:translate(720px,48px)}44.92%{transform:translate(720px,80px)}45.25%{transform:translate(704px,80px)}45.57%{transform:translate(704px,64px)}45.9%{transform:translate(688px,64px)}46.56%{transform:translate(672px,80px)}46.89%{transform:translate(672px,96px)}49.51%{transform:translate(800px,96px)}50.82%{transform:translate(800px,32px)}51.48%{transform:translate(768px,32px)}52.13%{transform:translate(752px,16px)}55.08%{transform:translate(624px,0)}55.74%{transform:translate(624px,32px)}56.07%{transform:translate(608px,32px)}57.05%{transform:translate(624px,64px)}59.34%{transform:translate(544px,64px)}60%{transform:translate(544px,96px)}60.33%{transform:translate(528px,96px)}61.64%{transform:translate(528px,32px)}62.3%{transform:translate(496px,32px)}62.95%{transform:translate(496px,64px)}63.28%{transform:translate(480px,64px)}63.61%{transform:translate(480px,48px)}63.93%{transform:translate(464px,48px)}64.59%{transform:translate(464px,16px)}65.25%{transform:translate(432px,16px)}66.56%{transform:translate(432px,80px)}67.54%{transform:translate(400px,64px)}67.87%{transform:translate(400px,80px)}73.11%{transform:translate(624px,48px)}76.39%{transform:translate(752px,80px)}76.72%{transform:translate(768px,80px)}77.05%{transform:translate(768px,64px)}79.02%{transform:translate(672px,64px)}80%{transform:translate(672px,16px)}81.31%{transform:translate(608px,16px)}81.64%{transform:translate(608px,0)}82.95%{transform:translate(544px,0)}83.28%{transform:translate(544px,16px)}83.93%{transform:translate(576px,16px)}84.59%{transform:translate(576px,48px)}85.9%{transform:translate(592px,96px)}86.23%{transform:translate(576px,96px)}87.54%{transform:translate(576px,32px)}96.72%{transform:translate(128px,32px)}97.05%{transform:translate(128px,16px)}98.36%{transform:translate(64px,16px)}99.02%{transform:translate(64px,-16px)}}@keyframes s3{0%,99.67%{transform:translate(48px,-16px)}.98%{transform:translate(0,-16px)}2.62%{transform:translate(0,64px)}4.59%{transform:translate(96px,64px)}5.25%{transform:translate(96px,32px)}7.21%{transform:translate(192px,32px)}8.52%{transform:translate(192px,96px)}9.84%{transform:translate(256px,96px)}10.16%{transform:translate(256px,80px)}13.44%,67.21%{transform:translate(416px,80px)}13.77%,67.54%{transform:translate(416px,64px)}14.43%{transform:translate(448px,64px)}14.75%{transform:translate(448px,80px)}16.07%{transform:translate(512px,80px)}16.72%,21.31%{transform:translate(512px,48px)}17.38%{transform:translate(544px,48px)}17.7%{transform:translate(544px,32px)}18.03%{transform:translate(560px,32px)}18.69%{transform:translate(560px,0)}20%{transform:translate(496px,0)}20.33%{transform:translate(496px,16px)}20.66%{transform:translate(512px,16px)}22.3%{transform:translate(560px,48px)}22.62%{transform:translate(560px,64px)}23.61%,24.92%,57.05%,58.36%{transform:translate(608px,64px)}23.93%{transform:translate(608px,48px)}24.26%,85.25%{transform:translate(592px,48px)}24.59%{transform:translate(592px,64px)}25.25%,33.77%,58.03%{transform:translate(608px,80px)}25.57%,57.7%,72.79%{transform:translate(624px,80px)}25.9%{transform:translate(624px,96px)}26.56%,35.08%{transform:translate(656px,96px)}26.89%,35.41%{transform:translate(656px,80px)}27.54%,36.07%,46.56%{transform:translate(688px,80px)}28.85%{transform:translate(688px,16px)}29.51%{transform:translate(656px,16px)}29.84%{transform:translate(656px,0)}30.16%{transform:translate(640px,0)}30.49%{transform:translate(640px,-16px)}30.82%{transform:translate(656px,-16px)}31.8%{transform:translate(656px,32px)}32.13%{transform:translate(640px,32px)}33.11%{transform:translate(640px,80px)}34.1%{transform:translate(608px,96px)}36.39%{transform:translate(688px,96px)}37.38%{transform:translate(736px,96px)}38.03%{transform:translate(736px,64px)}38.36%{transform:translate(752px,64px)}38.69%,76.07%{transform:translate(752px,48px)}39.34%,43.28%{transform:translate(784px,48px)}40.33%{transform:translate(784px,0)}40.98%,52.79%{transform:translate(752px,0)}41.31%{transform:translate(752px,-16px)}41.64%{transform:translate(768px,-16px)}42.3%,52.13%{transform:translate(768px,16px)}42.62%{transform:translate(784px,16px)}44.59%{transform:translate(720px,48px)}45.25%{transform:translate(720px,80px)}45.57%{transform:translate(704px,80px)}45.9%{transform:translate(704px,64px)}46.23%{transform:translate(688px,64px)}46.89%{transform:translate(672px,80px)}47.21%{transform:translate(672px,96px)}49.84%{transform:translate(800px,96px)}51.15%{transform:translate(800px,32px)}51.8%{transform:translate(768px,32px)}52.46%{transform:translate(752px,16px)}55.41%{transform:translate(624px,0)}56.07%{transform:translate(624px,32px)}56.39%{transform:translate(608px,32px)}57.38%{transform:translate(624px,64px)}59.67%{transform:translate(544px,64px)}60.33%{transform:translate(544px,96px)}60.66%{transform:translate(528px,96px)}61.97%{transform:translate(528px,32px)}62.62%{transform:translate(496px,32px)}63.28%{transform:translate(496px,64px)}63.61%{transform:translate(480px,64px)}63.93%{transform:translate(480px,48px)}64.26%{transform:translate(464px,48px)}64.92%{transform:translate(464px,16px)}65.57%{transform:translate(432px,16px)}66.89%{transform:translate(432px,80px)}67.87%{transform:translate(400px,64px)}68.2%{transform:translate(400px,80px)}73.44%{transform:translate(624px,48px)}76.72%{transform:translate(752px,80px)}77.05%{transform:translate(768px,80px)}77.38%{transform:translate(768px,64px)}79.34%{transform:translate(672px,64px)}80.33%{transform:translate(672px,16px)}81.64%{transform:translate(608px,16px)}81.97%{transform:translate(608px,0)}83.28%{transform:translate(544px,0)}83.61%{transform:translate(544px,16px)}84.26%{transform:translate(576px,16px)}84.92%{transform:translate(576px,48px)}86.23%{transform:translate(592px,96px)}86.56%{transform:translate(576px,96px)}87.87%{transform:translate(576px,32px)}97.05%{transform:translate(128px,32px)}97.38%{transform:translate(128px,16px)}98.69%{transform:translate(64px,16px)}99.34%{transform:translate(64px,-16px)}}:root{--cb:#1b1f230a;--cs:purple;--ce:#ebedf0;--c0:#ebedf0;--c1:#9be9a8;--c2:#40c463;--c3:#30a14e;--c4:#216e39}.c{shape-rendering:geometricPrecision;rx:2;ry:2;fill:var(--ce);stroke-width:1px;stroke:var(--cb);animation:none 30500ms linear infinite}.c.c0,.c.c1,.c.c2{fill:var(--c1);animation-name:c0}.c.c1,.c.c2{animation-name:c1}.c.c2{animation-name:c2}.c.c3,.c.c4,.c.c5{fill:var(--c1);animation-name:c3}.c.c4,.c.c5{animation-name:c4}.c.c5{animation-name:c5}.c.c6,.c.c7,.c.c8{fill:var(--c1);animation-name:c6}.c.c7,.c.c8{animation-name:c7}.c.c8{animation-name:c8}.c.c9,.c.ca{fill:var(--c2);animation-name:c9}.c.ca{animation-name:ca}.c.cb{fill:var(--c1);animation-name:cb}.c.cc{fill:var(--c2);animation-name:cc}.c.cd{fill:var(--c4);animation-name:cd}.c.ce{fill:var(--c1);animation-name:ce}.c.cf{fill:var(--c2);animation-name:cf}.c.cg{fill:var(--c1);animation-name:cg}.c.ch{fill:var(--c2);animation-name:ch}.c.ci{fill:var(--c4);animation-name:ci}.c.cj{fill:var(--c1);animation-name:cj}.c.ck{fill:var(--c2);animation-name:ck}.c.cl,.c.cm,.c.cn{fill:var(--c1);animation-name:cl}.c.cm,.c.cn{animation-name:cm}.c.cn{animation-name:cn}.c.co{fill:var(--c4);animation-name:co}.c.cp{fill:var(--c3);animation-name:cp}.c.cq,.c.cr,.c.cs{fill:var(--c4);animation-name:cq}.c.cr,.c.cs{animation-name:cr}.c.cs{animation-name:cs}.c.ct{fill:var(--c2);animation-name:ct}.c.cu{fill:var(--c1);animation-name:cu}.c.cv,.c.cw,.c.cx{fill:var(--c1);animation-name:cv}.c.cw,.c.cx{animation-name:cw}.c.cx{animation-name:cx}.c.cy,.c.cz{fill:var(--c2);animation-name:cy}.c.cz{animation-name:cz}.c.c10{fill:var(--c3);animation-name:c10}.c.c11{fill:var(--c2);animation-name:c11}.c.c12,.c.c13,.c.c14{fill:var(--c1);animation-name:c12}.c.c13,.c.c14{animation-name:c13}.c.c14{animation-name:c14}.c.c15{fill:var(--c4);animation-name:c15}.c.c16,.c.c17{fill:var(--c1);animation-name:c16}.c.c17{animation-name:c17}.c.c18,.c.c19,.c.c1a{fill:var(--c1);animation-name:c18}.c.c19,.c.c1a{animation-name:c19}.c.c1a{animation-name:c1a}.c.c1b{fill:var(--c2);animation-name:c1b}.c.c1c{fill:var(--c1);animation-name:c1c}.c.c1d{fill:var(--c4);animation-name:c1d}.c.c1e{fill:var(--c1);animation-name:c1e}.c.c1f{fill:var(--c2);animation-name:c1f}.c.c1g{fill:var(--c1);animation-name:c1g}.c.c1h,.c.c1i{fill:var(--c2);animation-name:c1h}.c.c1i{animation-name:c1i}.c.c1j{fill:var(--c1);animation-name:c1j}.c.c1k,.c.c1l,.c.c1m{fill:var(--c1);animation-name:c1k}.c.c1l,.c.c1m{animation-name:c1l}.c.c1m{animation-name:c1m}.c.c1n{fill:var(--c2);animation-name:c1n}.c.c1o{fill:var(--c1);animation-name:c1o}.c.c1p{fill:var(--c2);animation-name:c1p}.c.c1q,.c.c1r{fill:var(--c1);animation-name:c1q}.c.c1r{animation-name:c1r}.c.c1s{fill:var(--c2);animation-name:c1s}.c.c1t{fill:var(--c1);animation-name:c1t}.c.c1u{fill:var(--c4);animation-name:c1u}.c.c1v{fill:var(--c3);animation-name:c1v}.c.c1w,.c.c1x,.c.c1y{fill:var(--c1);animation-name:c1w}.c.c1x,.c.c1y{animation-name:c1x}.c.c1y{animation-name:c1y}.c.c1z{fill:var(--c2);animation-name:c1z}.s,.u{animation:none linear 30500ms infinite}.u,.u.u0{transform-origin:0 0}.u{transform:scale(0,1)}.u.u0{fill:var(--c1);animation-name:u0}.u.u1{fill:var(--c2);animation-name:u1;transform-origin:494.7px 0}.u.u2{fill:var(--c3);animation-name:u2;transform-origin:706.7px 0}.u.u3{fill:var(--c4);animation-name:u3;transform-origin:742px 0}.s{shape-rendering:geometricPrecision;fill:var(--cs)}.s.s0{transform:translate(0,-16px);animation-name:s0}.s.s1{transform:translate(16px,-16px);animation-name:s1}.s.s2{transform:translate(32px,-16px);animation-name:s2}.s.s3{transform:translate(48px,-16px);animation-name:s3}</style><rect class="c" x="2" y="2" width="12" height="12"/><rect class="c" x="2" y="18" width="12" height="12"/><rect class="c c0" x="2" y="34" width="12" height="12"/><rect class="c" x="2" y="50" width="12" height="12"/><rect class="c c1" x="2" y="66" width="12" height="12"/><rect class="c" x="2" y="82" width="12" height="12"/><rect class="c" x="2" y="98" width="12" height="12"/><rect class="c" x="18" y="2" width="12" height="12"/><rect class="c" x="18" y="18" width="12" height="12"/><rect class="c" x="18" y="34" width="12" height="12"/><rect class="c" x="18" y="50" width="12" height="12"/><rect class="c c2" x="18" y="66" width="12" height="12"/><rect class="c" x="18" y="82" width="12" height="12"/><rect class="c" x="18" y="98" width="12" height="12"/><rect class="c" x="34" y="2" width="12" height="12"/><rect class="c" x="34" y="18" width="12" height="12"/><rect class="c" x="34" y="34" width="12" height="12"/><rect class="c" x="34" y="50" width="12" height="12"/><rect class="c c3" x="34" y="66" width="12" height="12"/><rect class="c" x="34" y="82" width="12" height="12"/><rect class="c" x="34" y="98" width="12" height="12"/><rect class="c" x="50" y="2" width="12" height="12"/><rect class="c" x="50" y="18" width="12" height="12"/><rect class="c" x="50" y="34" width="12" height="12"/><rect class="c" x="50" y="50" width="12" height="12"/><rect class="c" x="50" y="66" width="12" height="12"/><rect class="c" x="50" y="82" width="12" height="12"/><rect class="c" x="50" y="98" width="12" height="12"/><rect class="c" x="66" y="2" width="12" height="12"/><rect class="c" x="66" y="18" width="12" height="12"/><rect class="c" x="66" y="34" width="12" height="12"/><rect class="c" x="66" y="50" width="12" height="12"/><rect class="c" x="66" y="66" width="12" height="12"/><rect class="c" x="66" y="82" width="12" height="12"/><rect class="c" x="66" y="98" width="12" height="12"/><rect class="c" x="82" y="2" width="12" height="12"/><rect class="c" x="82" y="18" width="12" height="12"/><rect class="c" x="82" y="34" width="12" height="12"/><rect class="c" x="82" y="50" width="12" height="12"/><rect class="c" x="82" y="66" width="12" height="12"/><rect class="c" x="82" y="82" width="12" height="12"/><rect class="c" x="82" y="98" width="12" height="12"/><rect class="c" x="98" y="2" width="12" height="12"/><rect class="c" x="98" y="18" width="12" height="12"/><rect class="c c4" x="98" y="34" width="12" height="12"/><rect class="c" x="98" y="50" width="12" height="12"/><rect class="c" x="98" y="66" width="12" height="12"/><rect class="c" x="98" y="82" width="12" height="12"/><rect class="c" x="98" y="98" width="12" height="12"/><rect class="c" x="114" y="2" width="12" height="12"/><rect class="c" x="114" y="18" width="12" height="12"/><rect class="c" x="114" y="34" width="12" height="12"/><rect class="c" x="114" y="50" width="12" height="12"/><rect class="c" x="114" y="66" width="12" height="12"/><rect class="c" x="114" y="82" width="12" height="12"/><rect class="c" x="114" y="98" width="12" height="12"/><rect class="c" x="130" y="2" width="12" height="12"/><rect class="c" x="130" y="18" width="12" height="12"/><rect class="c" x="130" y="34" width="12" height="12"/><rect class="c" x="130" y="50" width="12" height="12"/><rect class="c" x="130" y="66" width="12" height="12"/><rect class="c" x="130" y="82" width="12" height="12"/><rect class="c" x="130" y="98" width="12" height="12"/><rect class="c" x="146" y="2" width="12" height="12"/><rect class="c" x="146" y="18" width="12" height="12"/><rect class="c" x="146" y="34" width="12" height="12"/><rect class="c" x="146" y="50" width="12" height="12"/><rect class="c" x="146" y="66" width="12" height="12"/><rect class="c" x="146" y="82" width="12" height="12"/><rect class="c" x="146" y="98" width="12" height="12"/><rect class="c" x="162" y="2" width="12" height="12"/><rect class="c" x="162" y="18" width="12" height="12"/><rect class="c" x="162" y="34" width="12" height="12"/><rect class="c" x="162" y="50" width="12" height="12"/><rect class="c" x="162" y="66" width="12" height="12"/><rect class="c" x="162" y="82" width="12" height="12"/><rect class="c" x="162" y="98" width="12" height="12"/><rect class="c" x="178" y="2" width="12" height="12"/><rect class="c" x="178" y="18" width="12" height="12"/><rect class="c" x="178" y="34" width="12" height="12"/><rect class="c" x="178" y="50" width="12" height="12"/><rect class="c" x="178" y="66" width="12" height="12"/><rect class="c" x="178" y="82" width="12" height="12"/><rect class="c" x="178" y="98" width="12" height="12"/><rect class="c" x="194" y="2" width="12" height="12"/><rect class="c" x="194" y="18" width="12" height="12"/><rect class="c" x="194" y="34" width="12" height="12"/><rect class="c" x="194" y="50" width="12" height="12"/><rect class="c" x="194" y="66" width="12" height="12"/><rect class="c" x="194" y="82" width="12" height="12"/><rect class="c c5" x="194" y="98" width="12" height="12"/><rect class="c" x="210" y="2" width="12" height="12"/><rect class="c" x="210" y="18" width="12" height="12"/><rect class="c" x="210" y="34" width="12" height="12"/><rect class="c" x="210" y="50" width="12" height="12"/><rect class="c" x="210" y="66" width="12" height="12"/><rect class="c" x="210" y="82" width="12" height="12"/><rect class="c" x="210" y="98" width="12" height="12"/><rect class="c" x="226" y="2" width="12" height="12"/><rect class="c" x="226" y="18" width="12" height="12"/><rect class="c" x="226" y="34" width="12" height="12"/><rect class="c" x="226" y="50" width="12" height="12"/><rect class="c" x="226" y="66" width="12" height="12"/><rect class="c" x="226" y="82" width="12" height="12"/><rect class="c" x="226" y="98" width="12" height="12"/><rect class="c" x="242" y="2" width="12" height="12"/><rect class="c" x="242" y="18" width="12" height="12"/><rect class="c" x="242" y="34" width="12" height="12"/><rect class="c" x="242" y="50" width="12" height="12"/><rect class="c" x="242" y="66" width="12" height="12"/><rect class="c" x="242" y="82" width="12" height="12"/><rect class="c" x="242" y="98" width="12" height="12"/><rect class="c" x="258" y="2" width="12" height="12"/><rect class="c" x="258" y="18" width="12" height="12"/><rect class="c" x="258" y="34" width="12" height="12"/><rect class="c" x="258" y="50" width="12" height="12"/><rect class="c" x="258" y="66" width="12" height="12"/><rect class="c c6" x="258" y="82" width="12" height="12"/><rect class="c" x="258" y="98" width="12" height="12"/><rect class="c" x="274" y="2" width="12" height="12"/><rect class="c" x="274" y="18" width="12" height="12"/><rect class="c" x="274" y="34" width="12" height="12"/><rect class="c" x="274" y="50" width="12" height="12"/><rect class="c" x="274" y="66" width="12" height="12"/><rect class="c c7" x="274" y="82" width="12" height="12"/><rect class="c" x="274" y="98" width="12" height="12"/><rect class="c" x="290" y="2" width="12" height="12"/><rect class="c" x="290" y="18" width="12" height="12"/><rect class="c" x="290" y="34" width="12" height="12"/><rect class="c" x="290" y="50" width="12" height="12"/><rect class="c" x="290" y="66" width="12" height="12"/><rect class="c" x="290" y="82" width="12" height="12"/><rect class="c" x="290" y="98" width="12" height="12"/><rect class="c" x="306" y="2" width="12" height="12"/><rect class="c" x="306" y="18" width="12" height="12"/><rect class="c" x="306" y="34" width="12" height="12"/><rect class="c" x="306" y="50" width="12" height="12"/><rect class="c" x="306" y="66" width="12" height="12"/><rect class="c" x="306" y="82" width="12" height="12"/><rect class="c" x="306" y="98" width="12" height="12"/><rect class="c" x="322" y="2" width="12" height="12"/><rect class="c" x="322" y="18" width="12" height="12"/><rect class="c" x="322" y="34" width="12" height="12"/><rect class="c" x="322" y="50" width="12" height="12"/><rect class="c" x="322" y="66" width="12" height="12"/><rect class="c" x="322" y="82" width="12" height="12"/><rect class="c" x="322" y="98" width="12" height="12"/><rect class="c" x="338" y="2" width="12" height="12"/><rect class="c" x="338" y="18" width="12" height="12"/><rect class="c" x="338" y="34" width="12" height="12"/><rect class="c" x="338" y="50" width="12" height="12"/><rect class="c" x="338" y="66" width="12" height="12"/><rect class="c" x="338" y="82" width="12" height="12"/><rect class="c" x="338" y="98" width="12" height="12"/><rect class="c" x="354" y="2" width="12" height="12"/><rect class="c" x="354" y="18" width="12" height="12"/><rect class="c" x="354" y="34" width="12" height="12"/><rect class="c" x="354" y="50" width="12" height="12"/><rect class="c" x="354" y="66" width="12" height="12"/><rect class="c" x="354" y="82" width="12" height="12"/><rect class="c" x="354" y="98" width="12" height="12"/><rect class="c" x="370" y="2" width="12" height="12"/><rect class="c" x="370" y="18" width="12" height="12"/><rect class="c" x="370" y="34" width="12" height="12"/><rect class="c" x="370" y="50" width="12" height="12"/><rect class="c" x="370" y="66" width="12" height="12"/><rect class="c c8" x="370" y="82" width="12" height="12"/><rect class="c" x="370" y="98" width="12" height="12"/><rect class="c" x="386" y="2" width="12" height="12"/><rect class="c" x="386" y="18" width="12" height="12"/><rect class="c" x="386" y="34" width="12" height="12"/><rect class="c" x="386" y="50" width="12" height="12"/><rect class="c" x="386" y="66" width="12" height="12"/><rect class="c" x="386" y="82" width="12" height="12"/><rect class="c" x="386" y="98" width="12" height="12"/><rect class="c" x="402" y="2" width="12" height="12"/><rect class="c" x="402" y="18" width="12" height="12"/><rect class="c" x="402" y="34" width="12" height="12"/><rect class="c" x="402" y="50" width="12" height="12"/><rect class="c c9" x="402" y="66" width="12" height="12"/><rect class="c" x="402" y="82" width="12" height="12"/><rect class="c" x="402" y="98" width="12" height="12"/><rect class="c" x="418" y="2" width="12" height="12"/><rect class="c" x="418" y="18" width="12" height="12"/><rect class="c" x="418" y="34" width="12" height="12"/><rect class="c" x="418" y="50" width="12" height="12"/><rect class="c" x="418" y="66" width="12" height="12"/><rect class="c" x="418" y="82" width="12" height="12"/><rect class="c" x="418" y="98" width="12" height="12"/><rect class="c" x="434" y="2" width="12" height="12"/><rect class="c" x="434" y="18" width="12" height="12"/><rect class="c" x="434" y="34" width="12" height="12"/><rect class="c" x="434" y="50" width="12" height="12"/><rect class="c" x="434" y="66" width="12" height="12"/><rect class="c ca" x="434" y="82" width="12" height="12"/><rect class="c" x="434" y="98" width="12" height="12"/><rect class="c" x="450" y="2" width="12" height="12"/><rect class="c" x="450" y="18" width="12" height="12"/><rect class="c" x="450" y="34" width="12" height="12"/><rect class="c" x="450" y="50" width="12" height="12"/><rect class="c" x="450" y="66" width="12" height="12"/><rect class="c cb" x="450" y="82" width="12" height="12"/><rect class="c" x="450" y="98" width="12" height="12"/><rect class="c" x="466" y="2" width="12" height="12"/><rect class="c cc" x="466" y="18" width="12" height="12"/><rect class="c" x="466" y="34" width="12" height="12"/><rect class="c" x="466" y="50" width="12" height="12"/><rect class="c" x="466" y="66" width="12" height="12"/><rect class="c" x="466" y="82" width="12" height="12"/><rect class="c" x="466" y="98" width="12" height="12"/><rect class="c" x="482" y="2" width="12" height="12"/><rect class="c" x="482" y="18" width="12" height="12"/><rect class="c cd" x="482" y="34" width="12" height="12"/><rect class="c" x="482" y="50" width="12" height="12"/><rect class="c" x="482" y="66" width="12" height="12"/><rect class="c" x="482" y="82" width="12" height="12"/><rect class="c" x="482" y="98" width="12" height="12"/><rect class="c" x="498" y="2" width="12" height="12"/><rect class="c ce" x="498" y="18" width="12" height="12"/><rect class="c" x="498" y="34" width="12" height="12"/><rect class="c" x="498" y="50" width="12" height="12"/><rect class="c cf" x="498" y="66" width="12" height="12"/><rect class="c" x="498" y="82" width="12" height="12"/><rect class="c" x="498" y="98" width="12" height="12"/><rect class="c" x="514" y="2" width="12" height="12"/><rect class="c" x="514" y="18" width="12" height="12"/><rect class="c" x="514" y="34" width="12" height="12"/><rect class="c cg" x="514" y="50" width="12" height="12"/><rect class="c" x="514" y="66" width="12" height="12"/><rect class="c" x="514" y="82" width="12" height="12"/><rect class="c" x="514" y="98" width="12" height="12"/><rect class="c" x="530" y="2" width="12" height="12"/><rect class="c" x="530" y="18" width="12" height="12"/><rect class="c ch" x="530" y="34" width="12" height="12"/><rect class="c" x="530" y="50" width="12" height="12"/><rect class="c" x="530" y="66" width="12" height="12"/><rect class="c" x="530" y="82" width="12" height="12"/><rect class="c" x="530" y="98" width="12" height="12"/><rect class="c" x="546" y="2" width="12" height="12"/><rect class="c ci" x="546" y="18" width="12" height="12"/><rect class="c cj" x="546" y="34" width="12" height="12"/><rect class="c" x="546" y="50" width="12" height="12"/><rect class="c" x="546" y="66" width="12" height="12"/><rect class="c" x="546" y="82" width="12" height="12"/><rect class="c ck" x="546" y="98" width="12" height="12"/><rect class="c cl" x="562" y="2" width="12" height="12"/><rect class="c cm" x="562" y="18" width="12" height="12"/><rect class="c" x="562" y="34" width="12" height="12"/><rect class="c" x="562" y="50" width="12" height="12"/><rect class="c cn" x="562" y="66" width="12" height="12"/><rect class="c" x="562" y="82" width="12" height="12"/><rect class="c" x="562" y="98" width="12" height="12"/><rect class="c" x="578" y="2" width="12" height="12"/><rect class="c" x="578" y="18" width="12" height="12"/><rect class="c" x="578" y="34" width="12" height="12"/><rect class="c co" x="578" y="50" width="12" height="12"/><rect class="c" x="578" y="66" width="12" height="12"/><rect class="c" x="578" y="82" width="12" height="12"/><rect class="c" x="578" y="98" width="12" height="12"/><rect class="c" x="594" y="2" width="12" height="12"/><rect class="c" x="594" y="18" width="12" height="12"/><rect class="c" x="594" y="34" width="12" height="12"/><rect class="c" x="594" y="50" width="12" height="12"/><rect class="c" x="594" y="66" width="12" height="12"/><rect class="c cp" x="594" y="82" width="12" height="12"/><rect class="c cq" x="594" y="98" width="12" height="12"/><rect class="c cr" x="610" y="2" width="12" height="12"/><rect class="c cs" x="610" y="18" width="12" height="12"/><rect class="c ct" x="610" y="34" width="12" height="12"/><rect class="c cu" x="610" y="50" width="12" height="12"/><rect class="c cv" x="610" y="66" width="12" height="12"/><rect class="c cw" x="610" y="82" width="12" height="12"/><rect class="c cx" x="610" y="98" width="12" height="12"/><rect class="c cy" x="626" y="2" width="12" height="12"/><rect class="c" x="626" y="18" width="12" height="12"/><rect class="c cz" x="626" y="34" width="12" height="12"/><rect class="c c10" x="626" y="50" width="12" height="12"/><rect class="c c11" x="626" y="66" width="12" height="12"/><rect class="c c12" x="626" y="82" width="12" height="12"/><rect class="c c13" x="626" y="98" width="12" height="12"/><rect class="c c14" x="642" y="2" width="12" height="12"/><rect class="c c15" x="642" y="18" width="12" height="12"/><rect class="c c16" x="642" y="34" width="12" height="12"/><rect class="c c17" x="642" y="50" width="12" height="12"/><rect class="c" x="642" y="66" width="12" height="12"/><rect class="c" x="642" y="82" width="12" height="12"/><rect class="c c18" x="642" y="98" width="12" height="12"/><rect class="c c19" x="658" y="2" width="12" height="12"/><rect class="c" x="658" y="18" width="12" height="12"/><rect class="c" x="658" y="34" width="12" height="12"/><rect class="c" x="658" y="50" width="12" height="12"/><rect class="c" x="658" y="66" width="12" height="12"/><rect class="c c1a" x="658" y="82" width="12" height="12"/><rect class="c" x="658" y="98" width="12" height="12"/><rect class="c c1b" x="674" y="2" width="12" height="12"/><rect class="c c1c" x="674" y="18" width="12" height="12"/><rect class="c" x="674" y="34" width="12" height="12"/><rect class="c" x="674" y="50" width="12" height="12"/><rect class="c c1d" x="674" y="66" width="12" height="12"/><rect class="c c1e" x="674" y="82" width="12" height="12"/><rect class="c c1f" x="674" y="98" width="12" height="12"/><rect class="c" x="690" y="2" width="12" height="12"/><rect class="c c1g" x="690" y="18" width="12" height="12"/><rect class="c" x="690" y="34" width="12" height="12"/><rect class="c" x="690" y="50" width="12" height="12"/><rect class="c" x="690" y="66" width="12" height="12"/><rect class="c" x="690" y="82" width="12" height="12"/><rect class="c" x="690" y="98" width="12" height="12"/><rect class="c" x="706" y="2" width="12" height="12"/><rect class="c" x="706" y="18" width="12" height="12"/><rect class="c" x="706" y="34" width="12" height="12"/><rect class="c" x="706" y="50" width="12" height="12"/><rect class="c c1h" x="706" y="66" width="12" height="12"/><rect class="c c1i" x="706" y="82" width="12" height="12"/><rect class="c" x="706" y="98" width="12" height="12"/><rect class="c" x="722" y="2" width="12" height="12"/><rect class="c" x="722" y="18" width="12" height="12"/><rect class="c" x="722" y="34" width="12" height="12"/><rect class="c" x="722" y="50" width="12" height="12"/><rect class="c" x="722" y="66" width="12" height="12"/><rect class="c c1j" x="722" y="82" width="12" height="12"/><rect class="c" x="722" y="98" width="12" height="12"/><rect class="c" x="738" y="2" width="12" height="12"/><rect class="c" x="738" y="18" width="12" height="12"/><rect class="c" x="738" y="34" width="12" height="12"/><rect class="c" x="738" y="50" width="12" height="12"/><rect class="c c1k" x="738" y="66" width="12" height="12"/><rect class="c" x="738" y="82" width="12" height="12"/><rect class="c c1l" x="738" y="98" width="12" height="12"/><rect class="c c1m" x="754" y="2" width="12" height="12"/><rect class="c c1n" x="754" y="18" width="12" height="12"/><rect class="c" x="754" y="34" width="12" height="12"/><rect class="c c1o" x="754" y="50" width="12" height="12"/><rect class="c" x="754" y="66" width="12" height="12"/><rect class="c" x="754" y="82" width="12" height="12"/><rect class="c c1p" x="754" y="98" width="12" height="12"/><rect class="c c1q" x="770" y="2" width="12" height="12"/><rect class="c c1r" x="770" y="18" width="12" height="12"/><rect class="c c1s" x="770" y="34" width="12" height="12"/><rect class="c c1t" x="770" y="50" width="12" height="12"/><rect class="c c1u" x="770" y="66" width="12" height="12"/><rect class="c c1v" x="770" y="82" width="12" height="12"/><rect class="c" x="770" y="98" width="12" height="12"/><rect class="c c1w" x="786" y="2" width="12" height="12"/><rect class="c c1x" x="786" y="18" width="12" height="12"/><rect class="c" x="786" y="34" width="12" height="12"/><rect class="c c1y" x="786" y="50" width="12" height="12"/><rect class="c" x="786" y="66" width="12" height="12"/><rect class="c" x="786" y="82" width="12" height="12"/><rect class="c" x="786" y="98" width="12" height="12"/><rect class="c" x="802" y="2" width="12" height="12"/><rect class="c" x="802" y="18" width="12" height="12"/><rect class="c" x="802" y="34" width="12" height="12"/><rect class="c" x="802" y="50" width="12" height="12"/><rect class="c" x="802" y="66" width="12" height="12"/><rect class="c c1z" x="802" y="82" width="12" height="12"/><rect class="c" x="802" y="98" width="12" height="12"/><rect class="c" x="818" y="2" width="12" height="12"/><rect class="c" x="818" y="18" width="12" height="12"/><rect class="c" x="818" y="34" width="12" height="12"/><rect class="c" x="818" y="50" width="12" height="12"/><rect class="c" x="818" y="66" width="12" height="12"/><rect class="c" x="818" y="82" width="12" height="12"/><rect class="c" x="818" y="98" width="12" height="12"/><rect class="c" x="834" y="2" width="12" height="12"/><rect class="c" x="834" y="18" width="12" height="12"/><rect class="c" x="834" y="34" width="12" height="12"/><rect class="c" x="834" y="50" width="12" height="12"/><rect class="c" x="834" y="66" width="12" height="12"/><rect class="u u0" height="12" width="495.3" x="0.0" y="144"/><rect class="u u1" height="12" width="212.6" x="494.7" y="144"/><rect class="u u2" height="12" width="35.9" x="706.7" y="144"/><rect class="u u3" height="12" width="106.6" x="742.0" y="144"/><rect class="s s0" x="0.8" y="0.8" width="14.4" height="14.4" rx="4.5" ry="4.5"/><rect class="s s1" x="1.8" y="1.8" width="12.3" height="12.3" rx="4.1" ry="4.1"/><rect class="s s2" x="2.6" y="2.6" width="10.8" height="10.8" rx="3.6" ry="3.6"/><rect class="s s3" x="3.0" y="3.0" width="9.9" height="9.9" rx="3.3" ry="3.3"/></svg>